HIERARCHY
ROOT Hips
{
	OFFSET -0.001795 -0.223333 0.028219
	CHANNELS 6 Xposition Yposition Zposition Zrotation Yrotation Xrotation 
	JOINT LeftUpLeg
	{
		OFFSET 0.069520 -0.091406 -0.006815
		CHANNELS 3 Zrotation Yrotation Xrotation
		JOINT LeftLeg
		{
			OFFSET 0.034277 -0.375199 -0.004496
			CHANNELS 3 Zrotation Yrotation Xrotation
			JOINT LeftFoot
			{
				OFFSET -0.013596 -0.397961 -0.043693
				CHANNELS 3 Zrotation Yrotation Xrotation
				JOINT LeftToe
				{
					OFFSET 0.026358 -0.055791 0.119288
					CHANNELS 3 Zrotation Yrotation Xrotation
					End Site
					{
						OFFSET 0.000000 0.000000 0.000000
					}
				}
			}
		}
	}
	JOINT RightUpLeg
	{
		OFFSET -0.067670 -0.090522 -0.004320
		CHANNELS 3 Zrotation Yrotation Xrotation
		JOINT RightLeg
		{
			OFFSET -0.038290 -0.382569 -0.008850
			CHANNELS 3 Zrotation Yrotation Xrotation
			JOINT RightFoot
			{
				OFFSET 0.015774 -0.398415 -0.042312
				CHANNELS 3 Zrotation Yrotation Xrotation
				JOINT RightToe
				{
					OFFSET -0.025372 -0.048144 0.123348
					CHANNELS 3 Zrotation Yrotation Xrotation
					End Site
					{
						OFFSET 0.000000 0.000000 0.000000
					}
				}
			}
		}
	}
	JOINT Spine
	{
		OFFSET -0.002533 0.108963 -0.026696
		CHANNELS 3 Zrotation Yrotation Xrotation
		JOINT Spine1
		{
			OFFSET 0.005487 0.135180 0.001092
			CHANNELS 3 Zrotation Yrotation Xrotation
			JOINT Spine2
			{
				OFFSET 0.001457 0.052922 0.025425
				CHANNELS 3 Zrotation Yrotation Xrotation
				JOINT Neck
				{
					OFFSET -0.002778 0.213870 -0.042857
					CHANNELS 3 Zrotation Yrotation Xrotation
					JOINT Head
					{
						OFFSET 0.005152 0.064970 0.051349
						CHANNELS 3 Zrotation Yrotation Xrotation
						End Site
						{
							OFFSET 0.000000 0.000000 0.000000
						}
					}
				}
				JOINT LeftShoulder
				{
					OFFSET 0.078845 0.121749 -0.034090
					CHANNELS 3 Zrotation Yrotation Xrotation
					JOINT LeftArm
					{
						OFFSET 0.090977 0.030469 -0.008868
						CHANNELS 3 Zrotation Yrotation Xrotation
						JOINT LeftForeArm
						{
							OFFSET 0.259612 -0.012772 -0.027456
							CHANNELS 3 Zrotation Yrotation Xrotation
							JOINT LeftHand
							{
								OFFSET 0.249234 0.008986 -0.001171
								CHANNELS 3 Zrotation Yrotation Xrotation
								End Site
								{
									OFFSET 0.000000 0.000000 0.000000
								}
							}
						}
					}
				}
				JOINT RightShoulder
				{
					OFFSET -0.081759 0.118833 -0.038615
					CHANNELS 3 Zrotation Yrotation Xrotation
					JOINT RightArm
					{
						OFFSET -0.096012 0.032551 -0.009143
						CHANNELS 3 Zrotation Yrotation Xrotation
						JOINT RightForeArm
						{
							OFFSET -0.253742 -0.013329 -0.021401
							CHANNELS 3 Zrotation Yrotation Xrotation
							JOINT RightHand
							{
								OFFSET -0.255298 0.007772 -0.005559
								CHANNELS 3 Zrotation Yrotation Xrotation
								End Site
								{
									OFFSET 0.000000 0.000000 0.000000
								}
							}
						}
					}
				}
			}
		}
	}
}
MOTION
Frames: 10
Frame Time: 0.050000
0.053063 0.892562 -2.747162 -1.288150 2.529279 11.016730 13.355261 0.563622 -61.308748 -12.800060 5.399558 48.288206 6.331242 16.007705 19.991292 0.000000 0.000000 0.000000 9.196742 5.697862 -34.441876 5.745803 -1.505439 40.969010 -8.798761 -21.630581 2.775075 0.000000 0.000000 0.000000 -15.183718 5.958948 62.691732 11.247594 -1.074808 -30.027257 4.160602 11.234522 27.373438 -10.686254 8.390881 -35.587146 0.000000 0.000000 0.000000 -31.941844 -17.097966 4.425954 -32.744755 -29.442004 2.695434 29.338735 -35.755444 -8.348793 0.000000 0.000000 0.000000 25.072012 19.865132 15.177129 37.641595 24.363502 0.581325 -28.039223 32.842312 -5.488260 0.000000 0.000000 0.000000 
0.044503 0.900106 -2.775722 -0.998096 2.711171 11.382492 14.263175 0.978121 -61.103310 -15.088035 8.199621 59.435349 8.252312 18.361340 16.533701 0.000000 0.000000 0.000000 8.942808 5.741276 -35.257570 6.385751 -1.744138 37.993986 -9.127247 -22.224095 4.560324 0.000000 0.000000 0.000000 -15.538829 6.067090 62.088949 10.446475 -0.851150 -30.683898 4.313954 10.983313 27.520623 -10.971783 8.476335 -35.384819 0.000000 0.000000 0.000000 -31.561660 -16.729170 4.205041 -32.075627 -29.557853 2.603814 27.566737 -33.190859 -7.157577 0.000000 0.000000 0.000000 23.435716 20.191237 14.882536 37.528798 26.082579 1.183091 -29.534300 32.682988 -5.780458 0.000000 0.000000 0.000000 
0.036819 0.907234 -2.801839 -1.363980 3.993264 12.249750 14.410338 0.539736 -58.276587 -15.437043 8.907619 65.008377 8.698432 19.023106 16.833920 0.000000 0.000000 0.000000 8.986101 5.887236 -37.025431 6.866049 -2.029235 35.336661 -9.365119 -22.359750 8.449926 0.000000 0.000000 0.000000 -15.101572 5.218473 60.920732 10.342026 -0.810205 -30.689513 3.831010 11.407378 27.260696 -9.788649 7.935007 -36.440754 0.000000 0.000000 0.000000 -30.100733 -16.594766 3.784211 -33.115600 -29.033109 2.671542 26.512734 -32.686821 -6.821851 0.000000 0.000000 0.000000 24.395841 20.391181 15.643322 35.959227 27.599392 1.342483 -30.948920 33.599620 -6.340203 0.000000 0.000000 0.000000 
0.029915 0.912820 -2.826051 -1.462811 5.637206 12.952890 13.402803 -0.475430 -54.076037 -16.005045 8.926650 66.476766 9.910942 20.780333 16.134613 0.000000 0.000000 0.000000 8.917958 5.871505 -38.514307 7.223688 -2.242616 32.598273 -10.326956 -23.609569 12.408944 0.000000 0.000000 0.000000 -14.764459 4.391356 60.432726 10.360564 -0.715761 -31.311963 3.626039 11.158253 27.541184 -10.289554 8.079387 -36.991172 0.000000 0.000000 0.000000 -29.125021 -17.102062 4.076363 -31.769138 -28.888725 2.408293 25.913223 -31.556271 -6.438786 0.000000 0.000000 0.000000 23.691111 21.437543 16.223066 36.211307 28.952349 1.800684 -33.686351 34.227923 -7.147111 0.000000 0.000000 0.000000 
0.023830 0.915514 -2.849704 -1.923539 7.580866 13.099943 13.230624 -0.983794 -49.773811 -17.803587 9.162591 63.997972 10.967497 22.421675 15.344177 0.000000 0.000000 0.000000 8.873903 5.810961 -40.132867 7.844765 -2.581884 30.554232 -11.806220 -25.164976 17.675565 0.000000 0.000000 0.000000 -15.264331 3.992791 60.674534 10.457794 -0.661268 -31.810093 4.958215 11.329776 27.425442 -10.216482 7.905486 -38.912192 0.000000 0.000000 0.000000 -27.855650 -17.600863 4.162689 -32.644531 -28.557955 2.492728 27.185204 -31.088934 -6.812627 0.000000 0.000000 0.000000 23.970632 20.814467 16.193885 36.245081 30.097540 2.087844 -36.426390 35.436006 -8.069063 0.000000 0.000000 0.000000 
0.017944 0.914860 -2.874060 -1.754433 9.509797 13.285411 11.500661 -1.805327 -44.261694 -18.863610 8.015321 56.854447 12.171378 24.555478 12.439274 0.000000 0.000000 0.000000 8.505526 5.585661 -41.759853 8.393228 -2.868467 28.933021 -14.087743 -27.759186 21.148571 0.000000 0.000000 0.000000 -15.573638 3.480424 60.648871 11.648929 -0.948638 -30.737507 3.735596 11.027821 26.259352 -11.494908 8.189482 -39.977204 0.000000 0.000000 0.000000 -26.683314 -16.871152 3.663787 -31.018855 -28.529882 2.298837 28.763501 -30.098344 -7.115521 0.000000 0.000000 0.000000 25.416715 21.591783 17.267002 36.114221 30.801306 2.264544 -39.514025 36.783050 -9.368234 0.000000 0.000000 0.000000 
0.011317 0.911506 -2.900442 -2.125221 12.363492 13.017335 8.923218 -2.653373 -38.859409 -16.482936 4.668082 47.594059 11.803008 24.574024 4.789734 0.000000 0.000000 0.000000 8.671126 5.297491 -43.172441 8.382201 -3.035060 27.818999 -15.700633 -29.178473 23.277857 0.000000 0.000000 0.000000 -15.936739 2.638869 60.521704 11.807561 -0.871725 -31.427738 4.047554 9.776456 27.322768 -11.315509 8.224785 -39.736779 0.000000 0.000000 0.000000 -25.377068 -16.530825 3.774553 -29.753880 -29.718015 2.143822 29.958232 -28.578681 -7.069129 0.000000 0.000000 0.000000 24.599414 22.470805 17.405012 39.097163 32.212900 3.240808 -42.781015 35.804862 -9.752488 0.000000 0.000000 0.000000 
0.003303 0.905527 -2.929390 -3.410117 15.620315 12.203491 7.720006 -3.061659 -35.884372 -12.213972 1.617375 40.770014 11.003199 23.108786 0.387498 0.000000 0.000000 0.000000 8.355790 4.788670 -46.020437 9.031264 -3.749830 29.186677 -15.262431 -27.403936 26.610011 0.000000 0.000000 0.000000 -16.477832 1.680429 61.958417 13.729639 -1.107415 -32.169131 3.556701 10.766066 27.735210 -10.306268 7.668871 -43.467783 0.000000 0.000000 0.000000 -23.909787 -17.722510 3.984930 -27.568862 -30.687679 2.044313 30.979191 -25.361092 -6.693693 0.000000 0.000000 0.000000 26.017625 21.857073 18.083586 39.265198 34.269733 3.741469 -45.660161 35.953324 -10.415288 0.000000 0.000000 0.000000 
-0.006054 0.899809 -2.959664 -3.767703 18.615354 10.713649 7.721747 -3.600987 -37.146742 -10.703522 0.412219 40.846674 10.737526 22.677791 -0.103062 0.000000 0.000000 0.000000 7.655737 3.995729 -48.880933 9.978717 -4.857183 32.107977 -16.715915 -28.288893 29.576177 0.000000 0.000000 0.000000 -18.068021 1.393796 64.048701 14.276796 -1.231684 -31.792985 4.578339 11.219063 27.501419 -9.552820 7.487421 -43.630032 0.000000 0.000000 0.000000 -22.707655 -18.500930 4.203567 -26.040706 -31.724719 2.048356 33.568340 -23.207060 -6.879074 0.000000 0.000000 0.000000 24.484490 21.632629 17.556023 41.692757 35.315148 4.821961 -47.224776 35.386233 -10.353902 0.000000 0.000000 0.000000 
-0.015662 0.894859 -2.987017 -4.307237 19.527323 9.451170 9.069676 -3.683507 -39.189716 -11.617678 0.664716 41.873096 10.286247 22.066979 1.056317 0.000000 0.000000 0.000000 6.313656 3.221717 -52.084946 11.151588 -6.271959 36.902131 -12.900729 -23.640048 29.186379 0.000000 0.000000 0.000000 -19.888888 2.007105 65.186265 14.391811 -1.310734 -31.712625 5.041069 12.726955 28.420311 -10.151164 7.870506 -43.568336 0.000000 0.000000 0.000000 -22.783731 -20.570459 4.812076 -23.624723 -30.842238 1.652953 37.184339 -21.738896 -7.471176 0.000000 0.000000 0.000000 23.040385 22.598116 18.033079 42.599347 35.390297 5.145690 -49.851492 35.119822 -10.743656 0.000000 0.000000 0.000000 
